<svg width="122" height="40" viewBox="0 0 122 40" fill="none" xmlns="http://www.w3.org/2000/svg">
<path d="M56.1 24.84H60.84V27H53.28V12.88H56.1V24.84ZM62.6983 12.74C62.6983 12.2867 62.8583 11.92 63.1783 11.64C63.4983 11.3467 63.9183 11.2 64.4383 11.2C64.9583 11.2 65.3783 11.3467 65.6983 11.64C66.0183 11.92 66.1783 12.2867 66.1783 12.74C66.1783 13.18 66.0183 13.5467 65.6983 13.84C65.3783 14.12 64.9583 14.26 64.4383 14.26C63.9183 14.26 63.4983 14.12 63.1783 13.84C62.8583 13.5467 62.6983 13.18 62.6983 12.74ZM65.8383 15.92V27H63.0183V15.92H65.8383ZM75.4894 15.76C76.7694 15.76 77.7894 16.18 78.5494 17.02C79.3094 17.86 79.6894 19.04 79.6894 20.56V27H76.8894V20.88C76.8894 20 76.6627 19.32 76.2094 18.84C75.756 18.3467 75.136 18.1 74.3494 18.1C73.5494 18.1 72.9094 18.36 72.4294 18.88C71.9494 19.4 71.7094 20.1467 71.7094 21.12V27H68.8894V15.92H71.7094V18.14C72.0027 17.3933 72.4827 16.8133 73.1494 16.4C73.8294 15.9733 74.6094 15.76 75.4894 15.76ZM87.0106 15.78C87.944 15.78 88.744 16 89.4106 16.44C90.0773 16.88 90.5506 17.4733 90.8306 18.22V15.92H93.6306V27.04C93.6306 28.0667 93.424 28.9867 93.0106 29.8C92.6106 30.6267 92.004 31.2733 91.1906 31.74C90.3906 32.2067 89.4173 32.44 88.2706 32.44C86.6706 32.44 85.3773 32.06 84.3906 31.3C83.404 30.54 82.804 29.5067 82.5906 28.2H85.3706C85.5306 28.76 85.8373 29.1933 86.2906 29.5C86.7573 29.82 87.3506 29.98 88.0706 29.98C88.8973 29.98 89.564 29.7333 90.0706 29.24C90.5773 28.76 90.8306 28.0267 90.8306 27.04V24.68C90.5506 25.4267 90.0773 26.0267 89.4106 26.48C88.744 26.92 87.944 27.14 87.0106 27.14C86.0773 27.14 85.2373 26.9133 84.4906 26.46C83.744 26.0067 83.1573 25.3533 82.7306 24.5C82.3173 23.6333 82.1106 22.62 82.1106 21.46C82.1106 20.3 82.3173 19.2933 82.7306 18.44C83.1573 17.5733 83.744 16.9133 84.4906 16.46C85.2373 16.0067 86.0773 15.78 87.0106 15.78ZM87.8906 18.24C87.0106 18.24 86.304 18.5267 85.7706 19.1C85.2373 19.6733 84.9706 20.46 84.9706 21.46C84.9706 22.46 85.2373 23.2467 85.7706 23.82C86.304 24.38 87.0106 24.66 87.8906 24.66C88.744 24.66 89.444 24.3733 89.9906 23.8C90.5506 23.2133 90.8306 22.4333 90.8306 21.46C90.8306 20.4733 90.5506 19.6933 89.9906 19.12C89.444 18.5333 88.744 18.24 87.8906 18.24ZM101.506 24.18L104.306 15.92H107.306L103.206 27H99.7663L95.6663 15.92H98.6863L101.506 24.18ZM113.714 15.78C114.647 15.78 115.447 16 116.114 16.44C116.78 16.88 117.254 17.4733 117.534 18.22V15.92H120.334V27H117.534V24.68C117.254 25.4267 116.78 26.0267 116.114 26.48C115.447 26.92 114.647 27.14 113.714 27.14C112.78 27.14 111.94 26.9133 111.194 26.46C110.447 26.0067 109.86 25.3533 109.434 24.5C109.02 23.6333 108.814 22.62 108.814 21.46C108.814 20.3 109.02 19.2933 109.434 18.44C109.86 17.5733 110.447 16.9133 111.194 16.46C111.94 16.0067 112.78 15.78 113.714 15.78ZM114.594 18.24C113.714 18.24 113.007 18.5267 112.474 19.1C111.94 19.6733 111.674 20.46 111.674 21.46C111.674 22.46 111.94 23.2467 112.474 23.82C113.007 24.38 113.714 24.66 114.594 24.66C115.447 24.66 116.147 24.3733 116.694 23.8C117.254 23.2133 117.534 22.4333 117.534 21.46C117.534 20.4733 117.254 19.6933 116.694 19.12C116.147 18.5333 115.447 18.24 114.594 18.24Z" fill="black"/>
<rect y="1" width="37" height="37" rx="5" fill="#EECC21"/>
<path d="M16.49 28.33H23.81V31H13.07V9.82H16.49V28.33Z" fill="white"/>
</svg>
