<svg width="17" height="25" viewBox="0 0 17 25" fill="none" xmlns="http://www.w3.org/2000/svg">
<g clip-path="url(#clip0)">
<path d="M5.30209 0.520836C8.10417 4.16667 8.25001 10.3229 5.30209 13.5417C4.51966 12.6527 3.98128 11.576 3.73959 10.4167C-2.39583 14.8229 0.83334 24.4792 8.42709 24.4792C19.8438 24.4792 17.7083 5.40625 5.30209 0.520836Z" stroke="#8B8993" stroke-width="1.5" stroke-linejoin="round"/>
<path d="M8.94794 15.1042C9.9896 16.9375 7.37502 19.5729 5.82294 19.2083C5.92692 19.802 6.23438 20.3409 6.69249 20.7324C7.1506 21.124 7.73078 21.3438 8.33335 21.3542C9.0215 21.3461 9.67918 21.0691 10.1658 20.5825C10.6524 20.0958 10.9294 19.4382 10.9375 18.75C11.0313 17.1875 10.5104 15.1042 8.94794 15.1042Z" stroke="#8B8993" stroke-width="1.5" stroke-linejoin="round"/>
</g>
<defs>
<clipPath id="clip0">
<rect width="16.4375" height="25" fill="white"/>
</clipPath>
</defs>
</svg>
