<svg width="25" height="21" viewBox="0 0 25 21" fill="none" xmlns="http://www.w3.org/2000/svg">
<g clip-path="url(#clip0)">
<path d="M3.12501 20.3125H21.3542C22.183 20.3125 22.9778 19.9833 23.5639 19.3972C24.1499 18.8112 24.4792 18.0163 24.4792 17.1875V6.6875C24.4792 5.58293 23.5837 4.6875 22.4792 4.6875H7.72918C6.62461 4.6875 5.72918 5.58293 5.72918 6.6875V17.7083C5.72918 18.399 5.45481 19.0614 4.96643 19.5498C4.47806 20.0381 3.81568 20.3125 3.12501 20.3125C2.43434 20.3125 1.77196 20.0381 1.28359 19.5498C0.79521 19.0614 0.520844 18.399 0.520844 17.7083V2.52083C0.520844 1.41626 1.41627 0.520832 2.52084 0.520832H6.77084C7.34614 0.520832 7.81251 0.987202 7.81251 1.5625V1.5625C7.81251 2.1378 8.27888 2.60417 8.85418 2.60417H19.3542C20.4587 2.60417 21.3542 3.4996 21.3542 4.60417V4.6875" stroke="#8B8993" stroke-width="1.5" stroke-linecap="round" stroke-linejoin="round"/>
</g>
<defs>
<clipPath id="clip0">
<rect width="25" height="20.8333" fill="white"/>
</clipPath>
</defs>
</svg>
