<svg width="17" height="21" viewBox="0 0 17 21" fill="none" xmlns="http://www.w3.org/2000/svg">
<path d="M13.2444 8.17778C13.2444 8.17778 13.2444 6.10889 13.2444 5.64444C13.2444 3.06889 11.1756 1 8.6 1C6.02444 1 3.95556 3.06889 3.95556 5.64444C3.95556 6.10889 3.95556 8.17778 3.95556 8.17778M1.84444 20C1.38 20 1 19.62 1 19.1556V9.02222C1 8.55778 1.38 8.17778 1.84444 8.17778H15.3556C15.82 8.17778 16.2 8.55778 16.2 9.02222V19.1556C16.2 19.62 15.82 20 15.3556 20H1.84444Z" stroke="#BCC0CD" stroke-width="1.5" stroke-miterlimit="10" stroke-linecap="round"/>
<path d="M9.86665 13.2444C9.86665 12.5267 9.31776 11.9778 8.59998 11.9778C7.8822 11.9778 7.33331 12.5267 7.33331 13.2444C7.33331 13.6244 7.5022 13.9622 7.75554 14.1733V15.3556C7.75554 15.82 8.13554 16.2 8.59998 16.2C9.06442 16.2 9.44442 15.82 9.44442 15.3556V14.1733C9.69776 13.9622 9.86665 13.6244 9.86665 13.2444Z" fill="#BCC0CD"/>
</svg>
