<svg width="25" height="25" viewBox="0 0 25 25" fill="none" xmlns="http://www.w3.org/2000/svg">
<g clip-path="url(#clip0)">
<path d="M20.9055 14.859C21.0304 14.3996 21.4362 14.0625 21.9124 14.0625H23.4792C24.0315 14.0625 24.4792 13.6148 24.4792 13.0625V11.9375C24.4792 11.3852 24.0315 10.9375 23.4792 10.9375H21.9124C21.4362 10.9375 21.0304 10.6004 20.9055 10.1409C20.7581 9.59871 20.5737 9.06717 20.3536 8.55009C20.185 8.15418 20.2577 7.69108 20.5627 7.38748L21.739 6.21627C22.1305 5.82648 22.1317 5.19309 21.7418 4.80177L20.2071 3.26168C19.8168 2.86998 19.1827 2.86942 18.7917 3.26043L17.6125 4.43962C17.3088 4.74332 16.8466 4.81537 16.4514 4.64708C15.9339 4.42665 15.4018 4.24203 14.8591 4.09451C14.3996 3.96962 14.0625 3.56376 14.0625 3.0876V1.52083C14.0625 0.968544 13.6148 0.520828 13.0625 0.520828H11.9375C11.3852 0.520828 10.9375 0.968544 10.9375 1.52083V3.0877C10.9375 3.56381 10.6005 3.96965 10.1411 4.09455C9.59825 4.24212 9.06615 4.42675 8.54853 4.64717C8.15341 4.81542 7.69128 4.74335 7.38761 4.43968L6.20712 3.25918C5.81659 2.86866 5.18343 2.86866 4.7929 3.25919L3.2592 4.79289C2.86868 5.18341 2.86868 5.81658 3.2592 6.2071L4.43976 7.38766C4.7434 7.6913 4.81549 8.15337 4.64727 8.54847C4.42686 9.06615 4.24221 9.5983 4.09461 10.1412C3.9697 10.6006 3.56388 10.9375 3.08781 10.9375H1.52084C0.96856 10.9375 0.520844 11.3852 0.520844 11.9375V13.0625C0.520844 13.6148 0.968559 14.0625 1.52084 14.0625H3.08762C3.56378 14.0625 3.96963 14.3996 4.09452 14.859C4.24205 15.4018 4.42667 15.9339 4.64709 16.4514C4.81538 16.8466 4.74334 17.3088 4.43964 17.6125L3.2592 18.7929C2.86868 19.1834 2.86868 19.8166 3.2592 20.2071L4.7929 21.7408C5.18343 22.1313 5.81659 22.1313 6.20712 21.7408L7.38731 20.5606C7.69113 20.2568 8.15353 20.1848 8.54879 20.3533C9.0661 20.5737 9.59795 20.7583 10.1405 20.9057C10.6002 21.0305 10.9375 21.4364 10.9375 21.9128V23.4792C10.9375 24.0314 11.3852 24.4792 11.9375 24.4792H13.0625C13.6148 24.4792 14.0625 24.0314 14.0625 23.4792V21.9125C14.0625 21.4363 14.3996 21.0304 14.8592 20.9055C15.4019 20.758 15.9339 20.5734 16.4514 20.353C16.8466 20.1847 17.3088 20.2567 17.6125 20.5604L18.7929 21.7408C19.1834 22.1313 19.8166 22.1313 20.2071 21.7408L21.7408 20.2071C22.1313 19.8166 22.1313 19.1834 21.7408 18.7929L20.5604 17.6125C20.2567 17.3088 20.1846 16.8466 20.3529 16.4514C20.5734 15.9339 20.758 15.4018 20.9055 14.859Z" stroke="#8B8993" stroke-width="1.5" stroke-linecap="round" stroke-linejoin="round"/>
<path d="M12.5 17.1875C15.0888 17.1875 17.1875 15.0888 17.1875 12.5C17.1875 9.91116 15.0888 7.8125 12.5 7.8125C9.91116 7.8125 7.8125 9.91116 7.8125 12.5C7.8125 15.0888 9.91116 17.1875 12.5 17.1875Z" stroke="#8B8993" stroke-width="1.5" stroke-linecap="round" stroke-linejoin="round"/>
</g>
<defs>
<clipPath id="clip0">
<rect width="25" height="25" fill="white"/>
</clipPath>
</defs>
</svg>
