<svg width="70" height="70" viewBox="0 0 70 70" fill="none" xmlns="http://www.w3.org/2000/svg">
<circle cx="35" cy="35" r="35" fill="#584CAF"/>
<mask id="mask0" mask-type="alpha" maskUnits="userSpaceOnUse" x="0" y="0" width="70" height="70">
<circle cx="35" cy="35" r="35" fill="#584CAF"/>
</mask>
<g mask="url(#mask0)">
<path fill-rule="evenodd" clip-rule="evenodd" d="M-20.5833 9H27.25C29.137 9 30.6667 10.539 30.6667 12.4375V20.3945L47.9375 13.1461C48.2187 13.0267 48.5249 12.9793 48.8287 13.0082C49.1325 13.0372 49.4245 13.1414 49.6784 13.3118C49.9324 13.4821 50.1403 13.7131 50.2837 13.9842C50.4271 14.2552 50.5014 14.5578 50.5 14.8649V36.7961C50.5014 37.1032 50.4271 37.4058 50.2837 37.6768C50.1403 37.9479 49.9324 38.1789 49.6784 38.3492C49.4245 38.5196 49.1325 38.6238 48.8287 38.6528C48.5249 38.6817 48.2187 38.6343 47.9375 38.5149L30.6667 31.2665V39.9375C30.6667 41.836 29.137 43.375 27.25 43.375H-20.5833C-22.4703 43.375 -24 41.836 -24 39.9375V12.4375C-24 10.539 -22.4703 9 -20.5833 9Z" fill="url(#paint0_linear)"/>
<path d="M14 27L14 39.4286" stroke="#584CAF" stroke-linecap="round" stroke-linejoin="round"/>
<path d="M18.1667 27L18.1667 39.4286" stroke="#584CAF" stroke-linecap="round" stroke-linejoin="round"/>
<path d="M22.3334 27L22.3334 39.4286" stroke="#584CAF" stroke-linecap="round" stroke-linejoin="round"/>
<circle cx="39.5" cy="66.5" r="18.5" fill="#EECC21"/>
<circle cx="69.5" cy="44.5" r="10.5" fill="#9FD2E4"/>
</g>
<defs>
<linearGradient id="paint0_linear" x1="51" y1="12.5" x2="-0.500001" y2="43" gradientUnits="userSpaceOnUse">
<stop stop-color="#FFC9EA"/>
<stop offset="1" stop-color="#F98BCE"/>
</linearGradient>
</defs>
</svg>
