<svg width="473" height="219" viewBox="0 0 473 219" fill="none" xmlns="http://www.w3.org/2000/svg">
<g opacity="0.3">
<path d="M344.673 21.7029C351.133 16.1278 357.217 9.38939 358.846 3.31576C360.475 -2.75786 356.975 -5.91142 352.452 -7.3494C344.771 -9.65708 331.358 -8.2358 327.903 -15.0396C326.24 -18.3036 326.678 -23.1299 324.46 -25.9361C322.746 -28.0979 319.305 -28.8815 314.931 -27.279C297.518 -20.9762 300.75 -0.98173 286.66 8.84356C283.637 10.8107 280.285 12.2174 276.764 12.9963C267.751 15.4594 257.849 18.4632 248.639 25.7502C239.729 32.8054 233.303 42.8388 232.074 50.3968C229.894 63.8028 243.709 71.362 261.93 58.9951C271.73 52.3578 279.911 41.7338 289.848 36.2277C306.903 26.7765 311.202 39.747 326.615 33.6654C331.681 31.4208 336.417 28.4923 340.688 24.9617C342.021 23.9305 343.349 22.8557 344.673 21.7029Z" stroke="#F0A8D4" stroke-width="0.75" stroke-linecap="round" stroke-linejoin="round"/>
<path d="M361.775 24.8632C369.886 17.8792 377.498 9.189 379.119 1.02493C380.74 -7.13913 375.761 -11.8008 369.479 -14.108C358.934 -18.0011 341.055 -17.2543 335.731 -26.929C333.194 -31.5514 333.326 -38.1239 330.079 -42.1684C327.587 -45.2853 322.854 -46.6673 317.132 -44.9153C294.295 -37.9215 300.559 -10.2773 282.567 1.87069C278.295 4.74899 273.839 5.72456 269.647 6.61293C257.745 9.13848 244.739 12.3468 233.008 21.4377C221.682 30.2688 213.976 43.3835 213.03 53.6189C211.359 71.7632 230.647 83.4015 254.001 68.1925C266.556 60.0163 276.574 46.242 289.419 39.647C311.463 28.3118 318.504 46.4874 338.668 39.5608C344.731 37.4587 350.976 33.4074 356.779 28.966C358.423 27.6604 360.114 26.2973 361.775 24.8632Z" stroke="#F0A8D4" stroke-width="0.75" stroke-linecap="round" stroke-linejoin="round"/>
<path d="M386.299 30.336C396.561 21.5338 405.978 10.3561 407.396 -0.670396C408.782 -11.4399 401.666 -18.54 393.004 -22.2904C378.455 -28.5998 354.462 -29.2688 346.435 -42.963C342.585 -49.5322 342.148 -58.4976 337.399 -64.3541C333.749 -68.8555 327.271 -71.2008 319.719 -69.3292C289.662 -61.8942 300.681 -23.4879 277.553 -8.59297C272.066 -5.06467 266.178 -4.12612 260.617 -3.29687C244.813 -0.935827 227.607 2.17585 212.721 13.5494C198.305 24.5722 189.178 41.8045 188.883 55.742C188.305 80.3534 215.357 98.0958 245.34 79.4725C261.472 69.4544 273.655 51.5569 290.307 43.7301C318.915 30.2894 330.044 55.8002 356.559 48.2403C364.551 45.9642 372.547 40.9681 379.928 35.4416C382.031 33.8449 384.192 32.1482 386.299 30.336Z" stroke="#F0A8D4" stroke-width="0.75" stroke-linecap="round" stroke-linejoin="round"/>
<path d="M399.804 35.221C411.342 25.3409 421.81 12.6653 423.012 -0.170905C424.188 -12.7066 415.636 -21.3035 405.463 -26.0286C388.339 -33.9832 360.51 -35.7367 350.604 -52.1298C345.874 -59.9713 345.006 -70.4748 339.268 -77.5067C334.846 -82.9196 327.251 -85.9215 318.567 -84.0425C284.016 -76.5582 298.335 -31.211 272.138 -14.7276C265.903 -10.8484 259.121 -9.96539 252.719 -9.22289C234.531 -7.13076 214.673 -4.14918 197.882 8.54838C181.617 20.8468 171.735 40.6317 171.935 56.8971C172.304 85.7298 204.362 107.557 238.377 86.999C256.672 75.9494 270.066 55.5017 289.066 47.0174C321.709 32.4196 335.615 62.7145 366.02 54.9728C375.181 52.6398 384.263 47.1239 392.636 40.9163C394.98 39.1878 397.396 37.2823 399.804 35.221Z" stroke="#F0A8D4" stroke-width="0.75" stroke-linecap="round" stroke-linejoin="round"/>
<path d="M437.164 48.5599C451.763 36.1235 464.654 19.7467 465.055 2.3009C465.465 -14.7471 453.178 -27.298 439.011 -34.741C415.227 -47.2543 377.615 -52.2406 362.762 -75.6164C355.683 -86.799 353.533 -101.26 345.097 -111.439C341.706 -115.568 337.299 -118.744 332.308 -120.653C327.317 -122.562 321.916 -123.138 316.635 -122.325C270.815 -115.281 294.386 -51.9063 260.684 -31.8039C252.694 -27.0406 243.627 -26.4981 235.069 -26.0966C210.791 -24.9354 184.374 -22.7323 162.959 -6.91054C142.232 8.40117 130.765 34.5301 132.593 56.8382C135.773 96.3123 180.969 129.223 224.809 104.266C248.38 90.8499 264.488 64.1195 289.252 54.3006C331.822 37.4258 353.393 80.1576 393.601 72.3941C405.716 70.0545 417.411 63.3535 428.033 55.6964C431.089 53.5025 434.155 51.1194 437.164 48.5599Z" stroke="#F0A8D4" stroke-width="0.75" stroke-linecap="round" stroke-linejoin="round"/>
<path d="M460.863 58.1404C477.282 44.1935 491.557 25.5536 491.362 5.18634C491.147 -14.7244 476.398 -29.8982 459.684 -39.1746C431.609 -54.7611 387.806 -62.1179 369.659 -90.0335C360.979 -103.38 357.938 -120.34 347.775 -132.603C339.999 -141.998 327.612 -148.07 314.37 -146.491C261.589 -140.147 291.411 -65.0537 253.16 -42.902C244.086 -37.6532 233.613 -37.4139 223.698 -37.2608C195.623 -36.862 165.054 -35.3658 140.851 -17.7654C117.442 -0.702953 105.218 29.412 108.215 55.5494C113.518 101.866 167.205 142.126 217.018 114.725C243.805 99.9965 261.397 69.3857 289.692 58.905C338.292 40.8847 365.026 91.7093 411.301 84.2793C425.241 82.0357 438.568 74.6416 450.565 66.1285C454.025 63.6748 457.489 61.0054 460.863 58.1404Z" stroke="#F0A8D4" stroke-width="0.75" stroke-linecap="round" stroke-linejoin="round"/>
<path d="M521.524 85.6554C542.304 68.1016 559.764 43.9337 557.578 15.99C555.377 -11.307 534.109 -33.4575 510.762 -47.7228C471.563 -71.6514 411.915 -85.8644 384.894 -125.8C371.967 -144.876 366.235 -168.437 351.461 -186.125C340.075 -199.7 322.855 -209.163 305.161 -208.223C234.745 -204.503 281.915 -98.9179 232.533 -72.1892C220.827 -65.8517 206.693 -66.4614 193.441 -67.2323C155.662 -69.3704 114.714 -70.142 83.8721 -48.2558C53.9819 -27.0963 40.3467 12.9488 46.8471 49.0192C58.3299 112.922 134.333 173.058 198.784 140.226C233.472 122.603 254.237 82.3443 291.33 70.6308C355.025 50.5336 395.77 122.6 457.308 116.783C475.868 114.964 493.049 106.134 508.419 95.6023C512.822 92.5594 517.234 89.2321 521.524 85.6554Z" stroke="#F0A8D4" stroke-width="2" stroke-linecap="round" stroke-linejoin="round"/>
</g>
</svg>
