<svg width="25" height="16" viewBox="0 0 25 16" fill="none" xmlns="http://www.w3.org/2000/svg">
<path d="M17 5H3C2.44772 5 2 5.44772 2 6V14C2 14.5523 2.44772 15 3 15H17C17.5523 15 18 14.5523 18 14V6C18 5.44772 17.5523 5 17 5Z" stroke="white" stroke-width="1.5" stroke-linecap="round" stroke-linejoin="round"/>
<path d="M6.5 11C7.32843 11 8 10.3284 8 9.5C8 8.67157 7.32843 8 6.5 8C5.67157 8 5 8.67157 5 9.5C5 10.3284 5.67157 11 6.5 11Z" stroke="white" stroke-width="1.5" stroke-linecap="round" stroke-linejoin="round"/>
<path d="M1 2H11C11.2652 2 11.5196 2.10536 11.7071 2.29289C11.8946 2.48043 12 2.73478 12 3V5" stroke="white" stroke-width="1.5" stroke-linecap="round" stroke-linejoin="round"/>
<path d="M18 8.5L23.25 6.31C23.3323 6.27527 23.4219 6.26148 23.5108 6.26989C23.5998 6.2783 23.6852 6.30864 23.7595 6.35819C23.8339 6.40774 23.8947 6.47495 23.9367 6.5538C23.9787 6.63265 24.0004 6.72068 24 6.81V13.19C24.0004 13.2793 23.9787 13.3674 23.9367 13.4462C23.8947 13.5251 23.8339 13.5923 23.7595 13.6418C23.6852 13.6914 23.5998 13.7217 23.5108 13.7301C23.4219 13.7385 23.3323 13.7247 23.25 13.69L18 11.5" stroke="white" stroke-width="1.5" stroke-linecap="round" stroke-linejoin="round"/>
</svg>
