<svg width="18" height="25" viewBox="0 0 18 25" fill="none" xmlns="http://www.w3.org/2000/svg">
<path d="M8.98999 7.5C9.81842 7.5 10.49 6.82843 10.49 6C10.49 5.17157 9.81842 4.5 8.98999 4.5C8.16156 4.5 7.48999 5.17157 7.48999 6C7.48999 6.82843 8.16156 7.5 8.98999 7.5Z" stroke="white" stroke-width="1.5" stroke-linejoin="round"/>
<path d="M8.98999 20.5C12.0276 20.5 14.49 18.0376 14.49 15C14.49 11.9624 12.0276 9.5 8.98999 9.5C5.95242 9.5 3.48999 11.9624 3.48999 15C3.48999 18.0376 5.95242 20.5 8.98999 20.5Z" stroke="white" stroke-width="1.5" stroke-linejoin="round"/>
<path d="M8.98999 17C10.0946 17 10.99 16.1046 10.99 15C10.99 13.8954 10.0946 13 8.98999 13C7.88542 13 6.98999 13.8954 6.98999 15C6.98999 16.1046 7.88542 17 8.98999 17Z" stroke="white" stroke-width="1.5" stroke-linejoin="round"/>
<path d="M17.5 21.5C17.5 22.0304 17.2893 22.5391 16.9142 22.9142C16.5391 23.2893 16.0304 23.5 15.5 23.5H2.5C1.96957 23.5 1.46086 23.2893 1.08579 22.9142C0.710714 22.5391 0.5 22.0304 0.5 21.5V2.5C0.5 1.96957 0.710714 1.46086 1.08579 1.08579C1.46086 0.710714 1.96957 0.5 2.5 0.5H15.5C16.0304 0.5 16.5391 0.710714 16.9142 1.08579C17.2893 1.46086 17.5 1.96957 17.5 2.5V21.5Z" stroke="white" stroke-width="1.5" stroke-linejoin="round"/>
</svg>
