<svg width="192" height="191" viewBox="0 0 192 191" fill="none" xmlns="http://www.w3.org/2000/svg">
<g opacity="0.1">
<path d="M177.218 3.03711C168.685 2.93959 159.665 3.96353 154.423 7.4376C149.182 10.9117 149.718 15.5925 152.156 19.6639C156.386 26.478 167.381 34.2916 165.467 41.6786C164.553 45.2258 161.03 48.5536 160.835 52.1252C160.689 54.8801 162.749 57.7447 167.089 59.439C184.313 66.2409 195.125 49.1143 212.191 51.0769C215.758 51.6031 219.202 52.7675 222.357 54.5144C230.743 58.6345 240.154 62.9375 251.88 63.5714C263.229 64.1808 274.687 60.914 280.612 56.0625C291.119 47.4565 285.768 32.646 263.924 29.8545C252.185 28.343 239.02 30.8907 227.928 28.4405C208.887 24.2351 214.251 11.6674 198.672 6.02359C193.389 4.35229 187.901 3.41307 182.362 3.23215C180.68 3.12244 178.974 3.0493 177.218 3.03711Z" stroke="white" stroke-width="0.75" stroke-linecap="round" stroke-linejoin="round"/>
<path d="M166.491 -10.652C155.789 -10.7861 144.33 -9.31112 137.711 -4.26457C131.092 0.781984 131.738 7.57168 134.92 13.4593C140.247 23.3574 154.143 34.6329 151.729 45.4086C150.571 50.5527 146.122 55.392 145.878 60.5727C145.683 64.5587 148.316 68.7276 153.765 71.2021C175.512 81.0758 189.115 56.2087 210.642 59.0124C215.75 59.6828 219.736 61.9013 223.466 64.0102C234.059 69.9953 245.932 76.1999 260.742 77.1507C275.077 78.0284 289.534 73.2987 297.019 66.2531C310.281 53.7586 303.528 32.2681 275.955 28.2089C261.132 26.0269 244.506 29.7204 230.512 26.161C206.486 20.0662 213.239 1.78155 193.54 -6.37339C187.604 -8.81134 180.241 -9.90841 172.952 -10.4204C170.855 -10.5301 168.685 -10.6276 166.491 -10.652Z" stroke="white" stroke-width="0.75" stroke-linecap="round" stroke-linejoin="round"/>
<path d="M151.731 -30.988C138.213 -31.183 123.756 -29.0376 115.393 -21.7116C107.226 -14.5562 107.86 -4.52408 111.871 4.02092C118.599 18.3804 136.14 34.7634 133.093 50.3419C131.63 57.8142 126.023 64.8233 125.706 72.3566C125.462 78.1467 128.766 84.1928 135.665 87.7888C163.116 102.112 180.279 66.0301 207.475 70.1746C213.923 71.162 218.957 74.3557 223.675 77.4153C237.084 86.1066 252.04 95.1636 270.727 96.4923C288.829 97.7722 307.077 90.8972 316.524 80.6456C333.248 62.5804 324.716 31.3747 289.914 25.4871C271.19 22.3177 250.212 27.669 232.549 22.5128C202.209 13.6508 210.754 -12.8375 185.874 -24.7225C178.378 -28.3063 169.077 -29.8544 159.886 -30.5979C157.253 -30.793 154.51 -30.9514 151.731 -30.988Z" stroke="white" stroke-width="0.75" stroke-linecap="round" stroke-linejoin="round"/>
<path d="M144.842 -43.5887C129.654 -43.8203 113.417 -41.2482 104.019 -32.4229C94.8399 -23.8047 95.5591 -11.7003 100.057 -1.42435C107.627 15.8729 127.326 35.6081 123.9 54.4534C122.255 63.4616 115.953 71.9091 115.599 80.9783C115.331 87.963 119.037 95.2403 126.789 99.5798C157.641 116.84 176.926 73.3719 207.473 78.3575C214.714 79.5765 220.382 83.404 225.672 87.0853C240.69 97.5563 257.549 108.466 278.539 110.063C298.872 111.611 319.375 103.322 329.992 90.9983C348.801 69.1421 339.22 31.5611 300.115 24.4545C279.088 20.6269 255.513 27.0875 235.656 20.8707C201.525 10.2047 211.154 -21.7081 183.24 -36.031C174.829 -40.3462 164.37 -42.2234 153.985 -43.1133C151.083 -43.3692 148.012 -43.5399 144.842 -43.5887Z" stroke="white" stroke-width="0.75" stroke-linecap="round" stroke-linejoin="round"/>
<path d="M125.668 -78.3172C106.493 -78.6585 85.9902 -74.9163 74.1417 -62.1048C62.5493 -49.5982 63.4513 -32.0571 69.1439 -17.1003C78.6885 8.02272 103.58 36.6564 99.2404 64.0102C97.1438 77.0776 89.1839 89.3405 88.7694 102.554C88.577 107.894 89.7786 113.192 92.2558 117.926C94.7331 122.661 98.4006 126.668 102.897 129.554C141.904 154.604 166.186 91.498 204.755 98.7388C213.897 100.458 221.052 106.053 227.732 111.416C246.7 126.617 267.959 142.451 294.483 144.767C320.155 147.01 346.046 135.015 359.443 117.084C383.188 85.391 371.096 30.8053 321.715 20.4928C295.166 14.9465 265.399 24.3204 240.337 15.2878C197.258 -0.241918 209.375 -46.5507 174.098 -67.3464C163.468 -73.612 150.267 -76.3303 137.236 -77.6224C133.494 -78.0003 129.617 -78.2441 125.668 -78.3172Z" stroke="white" stroke-width="0.75" stroke-linecap="round" stroke-linejoin="round"/>
<path d="M114.246 -101.185C92.7068 -101.6 69.6681 -97.0772 56.3326 -81.6816C43.3139 -66.6151 44.3257 -45.4781 50.7131 -27.4616C61.4401 2.80547 89.4033 37.3146 84.5274 70.2513C82.1992 86.0004 73.2519 100.726 72.7522 116.645C72.3621 128.835 77.6281 141.586 88.5988 149.168C132.36 179.349 159.714 103.322 203.048 112.038C213.324 114.11 221.333 120.863 228.866 127.311C250.174 145.596 274.078 164.71 303.87 167.538C332.711 170.244 361.807 155.762 376.862 134.186C403.545 95.9595 389.954 30.2446 334.478 17.811C304.65 11.1189 271.201 22.4188 243.055 11.5455C194.698 -7.11698 208.302 -62.9094 168.698 -87.9715C156.764 -95.517 141.88 -98.796 127.252 -100.356C123.035 -100.807 118.671 -101.1 114.246 -101.185Z" stroke="white" stroke-width="0.75" stroke-linecap="round" stroke-linejoin="round"/>
<path d="M86.9897 -161.963C59.7944 -162.561 30.7097 -156.002 13.8513 -133.61C-2.56827 -111.693 -1.28835 -81.0111 6.76907 -54.8642C20.3119 -10.9811 55.6134 39.1553 49.4332 86.9757C46.4954 109.831 35.1955 131.285 34.5617 154.324C34.1107 172.036 40.7541 190.528 54.6382 201.535C109.882 245.357 144.416 134.991 199.123 147.644C212.093 150.643 222.284 160.455 231.706 169.805C258.609 196.415 288.791 224.098 326.396 228.108C362.807 232.034 399.535 211.043 418.538 179.703C452.231 124.203 435.068 28.8184 365.025 10.7654C327.359 1.01361 285.146 17.4454 249.589 1.67187C188.542 -25.4259 205.706 -106.415 155.728 -142.789C140.612 -153.711 121.889 -158.465 103.397 -160.744C98.0824 -161.378 92.5726 -161.805 86.9897 -161.963Z" stroke="white" stroke-width="2" stroke-linecap="round" stroke-linejoin="round"/>
</g>
</svg>
