<svg width="368" height="376" viewBox="0 0 368 376" fill="none" xmlns="http://www.w3.org/2000/svg">
<mask id="mask0" mask-type="alpha" maskUnits="userSpaceOnUse" x="34" y="-1" width="300" height="301">
<rect x="34" y="-0.000488281" width="300" height="300" rx="8" fill="#FF5722"/>
</mask>
<g mask="url(#mask0)">
<g opacity="0.04">
<path fill-rule="evenodd" clip-rule="evenodd" d="M348.367 77.4169L310.766 115.017L334.933 162.444L335.023 162.428L310.95 115.201L348.547 77.6049L395.777 101.674L395.789 101.588L348.367 77.4169ZM350.095 87.2389L350.083 87.2348L320.58 116.738L320.584 116.75L350.095 87.2389ZM360.622 127.273L361.771 120.034L355.233 116.705L350.055 121.883L353.379 128.426L360.622 127.273ZM330.66 170.854L301.435 113.542L346.888 68.0894L404.199 97.3147L394.167 160.817L330.66 170.854Z" fill="white"/>
<path fill-rule="evenodd" clip-rule="evenodd" d="M347.292 68.224L301.565 113.951L330.915 171.559L394.775 161.438L404.904 97.5702L347.292 68.224ZM326.769 179.691L292.555 112.522L345.863 59.2139L413.036 93.4239L401.231 167.894L326.769 179.691Z" fill="white"/>
<path fill-rule="evenodd" clip-rule="evenodd" d="M345.516 58.3222L291.671 112.167L326.188 179.965L401.371 168.026L413.31 92.843L345.516 58.3222ZM321.145 187.828L281.94 110.79L343.106 49.624L420.139 88.8327L406.566 174.254L321.145 187.828Z" fill="white"/>
<path fill-rule="evenodd" clip-rule="evenodd" d="M342.705 48.4285L280.74 110.393L320.418 188.387L406.914 174.607L420.695 88.111L342.705 48.4285ZM316.554 195.965L272.343 109.074L341.381 40.0354L428.277 84.2425L412.928 180.621L316.554 195.965Z" fill="white"/>
<path fill-rule="evenodd" clip-rule="evenodd" d="M340.384 39.0737L270.686 108.771L315.659 196.833L413.155 181.546L428.441 84.0502L340.384 39.0737ZM311.963 204.102L262.62 107.483L339.092 31.0104L435.707 80.3579L418.943 187.334L311.963 204.102Z" fill="white"/>
<path fill-rule="evenodd" clip-rule="evenodd" d="M338.604 29.1868L260.787 107.004L310.935 205.237L419.735 188.131L436.841 79.3308L338.604 29.1868ZM307.369 212.236L253.029 105.76L337.361 21.4279L443.841 75.7641L425.304 193.699L307.369 212.236Z" fill="white"/>
<path fill-rule="evenodd" clip-rule="evenodd" d="M336.831 19.2928L250.897 105.227L306.199 213.646L426.315 194.715L445.25 74.5949L336.831 19.2928ZM302.776 220.371L243.44 104.036L335.644 11.8311L451.975 71.1715L431.666 200.066L302.776 220.371Z" fill="white"/>
<path fill-rule="evenodd" clip-rule="evenodd" d="M335.058 9.39205L241 103.45L301.471 222.065L432.908 201.308L453.668 69.8669L335.058 9.39205ZM298.183 228.506L233.847 102.314L333.918 2.24278L460.11 66.5787L438.03 206.43L298.183 228.506Z" fill="white"/>
<path fill-rule="evenodd" clip-rule="evenodd" d="M333.989 0.209616L231.814 102.385L297.44 231.181L440.195 208.595L462.785 65.8358L333.989 0.209616ZM294.3 237.352L224.962 101.3L332.9 -6.63802L468.955 62.6965L445.101 213.501L294.3 237.352Z" fill="white"/>
<path fill-rule="evenodd" clip-rule="evenodd" d="M332.212 -9.69463L221.914 100.603L292.72 239.593L446.782 215.178L471.202 61.1114L332.212 -9.69463ZM289.713 245.492L215.375 99.5725L331.177 -16.2292L477.097 58.1088L451.467 219.863L289.713 245.492Z" fill="white"/>
<path fill-rule="evenodd" clip-rule="evenodd" d="M330.442 -19.5808L212.023 98.8379L287.987 248.01L453.367 221.763L479.613 56.383L330.442 -19.5808ZM285.816 253.628L206.48 97.8485L330.148 -25.8191L485.927 53.5166L458.526 226.226L285.816 253.628Z" fill="white"/>
<path fill-rule="evenodd" clip-rule="evenodd" d="M329.362 -29.479L202.817 97.0659L283.943 256.419L460.647 228.347L488.719 51.6433L329.362 -29.479ZM281.222 261.762L196.892 96.1235L328.419 -35.4029L494.062 48.9233L464.89 232.591L281.222 261.762Z" fill="white"/>
<path fill-rule="evenodd" clip-rule="evenodd" d="M327.584 -39.3896L192.917 95.277L279.216 264.828L467.234 234.936L497.134 46.9096L327.584 -39.3896ZM276.634 269.902L187.306 94.3959L326.699 -44.9964L502.201 44.3351L471.254 238.955L276.634 269.902Z" fill="white"/>
<path fill-rule="evenodd" clip-rule="evenodd" d="M325.811 -49.2735L183.025 93.5126L274.486 273.24L473.816 241.522L505.538 42.1877L325.811 -49.2735ZM272.038 278.034L177.712 92.6768L324.976 -54.587L510.333 39.7388L477.616 245.321L272.038 278.034Z" fill="white"/>
<path fill-rule="evenodd" clip-rule="evenodd" d="M324.041 -59.1764L173.128 91.7368L269.757 281.66L480.409 248.105L513.964 37.4534L324.041 -59.1764ZM268.918 285.936L267.447 286.17L168.124 90.9508L323.259 -64.184L518.47 35.1471L483.984 251.68L268.918 285.936Z" fill="white"/>
<path fill-rule="evenodd" clip-rule="evenodd" d="M322.263 -69.063L163.232 89.9684L265.014 290.07L486.985 254.69L522.364 32.7196L322.263 -69.063ZM262.859 294.31L158.53 89.2309L321.522 -73.7617L526.609 30.5589L490.344 258.048L262.859 294.31Z" fill="white"/>
<path fill-rule="evenodd" clip-rule="evenodd" d="M321.197 -78.2628L154.037 88.8975L260.997 299.194L494.278 261.979L531.494 28.697L321.197 -78.2628ZM258.97 303.15L149.648 88.2137L320.513 -82.6514L535.449 26.6711L497.417 265.118L258.97 303.15Z" fill="white"/>
<path fill-rule="evenodd" clip-rule="evenodd" d="M319.56 -88.2979L144.708 86.5539L256.969 306.901L501.214 268.212L539.907 23.9624L319.56 -88.2979ZM255.087 310.581L140.637 85.9104L318.916 -92.369L543.587 22.0815L504.132 271.13L255.087 310.581Z" fill="white"/>
<path fill-rule="evenodd" clip-rule="evenodd" d="M317.793 -98.1875L134.815 84.791L252.226 315.317L507.797 274.795L548.323 19.2201L317.793 -98.1875ZM251.603 318.546L250.496 318.717L131.049 84.1849L317.195 -101.961L551.723 17.4893L510.496 277.494L251.603 318.546Z" fill="white"/>
<path fill-rule="evenodd" clip-rule="evenodd" d="M316.007 -108.087L124.913 83.0064L247.498 323.721L514.378 281.377L556.725 14.4934L316.007 -108.087ZM245.897 326.852L121.453 82.4617L315.467 -111.552L559.853 12.8965L516.857 283.856L245.897 326.852Z" fill="white"/>
<path fill-rule="evenodd" clip-rule="evenodd" d="M565.144 9.76219L314.241 -117.984L115.02 81.2364L242.762 332.144L520.966 287.965L565.144 9.76219ZM242.241 334.847L241.312 334.994L112.284 81.5784L111.861 80.7398L313.741 -121.141L567.995 8.31039L523.372 289.295L523.221 290.219L242.241 334.847Z" fill="white"/>
<path fill-rule="evenodd" clip-rule="evenodd" d="M312.467 -127.883L105.118 79.4661L238.027 340.55L527.548 294.543L573.551 5.02561L312.467 -127.883ZM236.718 343.128L102.272 79.0155L312.017 -130.73L576.129 3.71713L529.587 296.582L236.718 343.128Z" fill="white"/>
<path fill-rule="evenodd" clip-rule="evenodd" d="M310.689 -137.778L95.2193 77.6923L233.295 348.977L534.133 301.132L581.974 0.297597L310.689 -137.778ZM232.874 351.148L232.133 351.271L93.0199 77.9707L92.6783 77.2949L310.296 -140.323L583.596 -1.21014L584.272 -0.868456L535.949 302.948L232.874 351.148Z" fill="white"/>
<path fill-rule="evenodd" clip-rule="evenodd" d="M309.627 -146.973L86.0282 76.6259L229.266 358.091L541.419 308.421L591.093 -3.73552L309.627 -146.973ZM228.894 360.002L228.238 360.104L84.0975 76.872L83.8006 76.2736L309.274 -149.2L592.515 -5.06792L593.105 -4.76288L543.018 310.021L228.894 360.002Z" fill="white"/>
<path fill-rule="evenodd" clip-rule="evenodd" d="M599.498 -8.4566L307.863 -156.857L76.1482 74.8578L224.545 366.497L548.004 315.003L599.498 -8.4566ZM224.222 368.147L223.647 368.242L74.4783 75.0633L74.2139 74.5463L307.551 -158.791L600.729 -9.61372L601.242 -9.3535L549.47 315.809L549.384 316.383L224.222 368.147Z" fill="white"/>
<path fill-rule="evenodd" clip-rule="evenodd" d="M306.086 -166.759L66.2418 73.0846L219.805 374.918L554.59 321.593L607.915 -13.1918L306.086 -166.759ZM219.535 376.311L219.059 376.381L64.8443 73.2613L64.6166 72.8297L305.826 -168.38L608.958 -14.1618L609.381 -13.9422L555.746 322.749L219.535 376.311Z" fill="white"/>
<path fill-rule="evenodd" clip-rule="evenodd" d="M616.333 -17.9263L304.314 -176.658L56.3493 71.3075L215.077 383.331L561.17 328.167L616.333 -17.9263ZM214.857 384.451L214.462 384.513L55.2062 71.4474L55.0314 71.1014L304.106 -177.973L617.167 -18.7129L617.513 -18.5381L562.173 328.716L562.111 329.111L214.857 384.451Z" fill="white"/>
<path fill-rule="evenodd" clip-rule="evenodd" d="M625.867 -22.2212L303.228 -186.556L47.1401 69.5318L211.471 392.175L569.148 335.46L625.867 -22.2212ZM211.304 393.036L211.006 393.089L46.1372 69.3774L303.073 -187.559L626.785 -22.6897L569.919 335.889L569.874 336.186L211.304 393.036Z" fill="white"/>
<path fill-rule="evenodd" clip-rule="evenodd" d="M36.5447 67.656L36.6425 67.8435L206.411 401.222L206.623 401.19L576.242 342.546L576.27 342.338L634.918 -27.2844L634.739 -27.3823L301.356 -197.155L36.5447 67.656ZM206.734 400.59L37.2504 67.7576L301.458 -196.45L634.286 -26.9623L575.733 342.036L206.734 400.59Z" fill="white"/>
</g>
</g>
</svg>
