<svg width="24" height="24" viewBox="0 0 24 24" fill="none" xmlns="http://www.w3.org/2000/svg">
<path fill-rule="evenodd" clip-rule="evenodd" d="M12 0C5.37258 0 0 5.37258 0 12C0 18.6274 5.37258 24 12 24C18.6274 24 24 18.6274 24 12C24 5.37258 18.6274 0 12 0ZM9.36174 5.63876C10.0444 5.6077 10.2625 5.6001 12.0007 5.6001H11.9987C13.7374 5.6001 13.9547 5.6077 14.6374 5.63876C15.3187 5.66997 15.7841 5.77783 16.1921 5.9361C16.6134 6.09944 16.9694 6.31811 17.3254 6.67411C17.6814 7.02985 17.9001 7.38692 18.0641 7.80785C18.2214 8.21479 18.3294 8.67986 18.3614 9.3612C18.3921 10.0439 18.4001 10.262 18.4001 12.0002C18.4001 13.7383 18.3921 13.9559 18.3614 14.6386C18.3294 15.3197 18.2214 15.7849 18.0641 16.1919C17.9001 16.6127 17.6814 16.9698 17.3254 17.3256C16.9698 17.6816 16.6133 17.9008 16.1925 18.0642C15.7853 18.2225 15.3197 18.3304 14.6383 18.3616C13.9557 18.3926 13.7382 18.4002 11.9999 18.4002C10.2619 18.4002 10.0439 18.3926 9.3612 18.3616C8.68 18.3304 8.21479 18.2225 7.80759 18.0642C7.38692 17.9008 7.02985 17.6816 6.67424 17.3256C6.31837 16.9698 6.0997 16.6127 5.9361 16.1918C5.77797 15.7849 5.6701 15.3198 5.63876 14.6385C5.60783 13.9558 5.6001 13.7383 5.6001 12.0002C5.6001 10.262 5.6081 10.0437 5.63863 9.36107C5.6693 8.68 5.7773 8.21479 5.93597 7.80772C6.09997 7.38692 6.31864 7.02985 6.67464 6.67411C7.03038 6.31824 7.38745 6.09957 7.80839 5.9361C8.21533 5.77783 8.6804 5.66997 9.36174 5.63876Z" fill="#4D4D4D"/>
<path fill-rule="evenodd" clip-rule="evenodd" d="M11.4265 6.75355C11.538 6.75338 11.6579 6.75343 11.7873 6.75349L12.0006 6.75355C13.7094 6.75355 13.912 6.75969 14.5868 6.79035C15.2108 6.81889 15.5495 6.92315 15.7751 7.01076C16.0737 7.12676 16.2867 7.26543 16.5105 7.48943C16.7345 7.71343 16.8732 7.92677 16.9895 8.22544C17.0771 8.45077 17.1815 8.78944 17.2099 9.41345C17.2405 10.0881 17.2472 10.2908 17.2472 11.9988C17.2472 13.7068 17.2405 13.9095 17.2099 14.5842C17.1813 15.2082 17.0771 15.5468 16.9895 15.7722C16.8735 16.0708 16.7345 16.2835 16.5105 16.5074C16.2865 16.7314 16.0739 16.8701 15.7751 16.9861C15.5497 17.0741 15.2108 17.1781 14.5868 17.2066C13.9121 17.2373 13.7094 17.2439 12.0006 17.2439C10.2917 17.2439 10.0891 17.2373 9.41447 17.2066C8.79046 17.1778 8.45179 17.0735 8.22606 16.9859C7.92739 16.8699 7.71405 16.7313 7.49005 16.5073C7.26604 16.2833 7.12738 16.0704 7.01111 15.7716C6.92351 15.5463 6.81911 15.2076 6.79071 14.5836C6.76004 13.909 6.75391 13.7063 6.75391 11.9972C6.75391 10.2881 6.76004 10.0865 6.79071 9.41185C6.81924 8.78784 6.92351 8.44917 7.01111 8.22357C7.12711 7.9249 7.26604 7.71156 7.49005 7.48756C7.71405 7.26356 7.92739 7.12489 8.22606 7.00862C8.45166 6.92062 8.79046 6.81662 9.41447 6.78795C10.0049 6.76129 10.2337 6.75329 11.4265 6.75195V6.75355ZM15.4168 7.81594C14.9928 7.81594 14.6488 8.15954 14.6488 8.58368C14.6488 9.00769 14.9928 9.35169 15.4168 9.35169C15.8408 9.35169 16.1848 9.00769 16.1848 8.58368C16.1848 8.15968 15.8408 7.81567 15.4168 7.81567V7.81594ZM8.71399 11.9996C8.71399 10.1845 10.1855 8.71296 12.0006 8.71289C13.8156 8.71289 15.2869 10.1845 15.2869 11.9996C15.2869 13.8147 13.8158 15.2856 12.0007 15.2856C10.1856 15.2856 8.71399 13.8147 8.71399 11.9996Z" fill="#4D4D4D"/>
<path fill-rule="evenodd" clip-rule="evenodd" d="M12.0005 9.86621C13.1787 9.86621 14.1339 10.8213 14.1339 11.9996C14.1339 13.1777 13.1787 14.1329 12.0005 14.1329C10.8223 14.1329 9.86719 13.1777 9.86719 11.9996C9.86719 10.8213 10.8223 9.86621 12.0005 9.86621V9.86621Z" fill="#4D4D4D"/>
</svg>
